<?xml version="1.0" encoding="UTF-8"?>
<svg version="1.1" viewBox="0 0 1000 1000" width="100%" height="100%" xmlns="http://www.w3.org/2000/svg">
<path transform="translate(346,128)" d="m0 0h97l54 2 53 4 26 3 29 6 26 8 19 7 20 9 23 12 21 13 18 13 14 11 15 13 8 8 8 7 7 8 13 14 11 14 14 19 12 19 10 18 8 16 9 20 9 25 7 25 6 31 3 30v35l-3 29-5 26-7 25-7 20-10 23-13 25-13 21-13 18-13 16-10 11-7 8-19 19-11 9-9 8-20 15-21 14-17 10-18 10-31 14-27 10-27 8-26 6-30 5-19 2-16 1h-46l-29-2-31-4-29-6-25-7-28-10-29-14-16-9-19-13-14-11-11-10-8-7-8-8-7-8-10-12-11-15-11-17-9-16-8-16-8-17-10-27-7-25-3-17-1-10v-23l3-17 5-15 7-12 6-7 9-7 15-6 4-1h21l12 4 11 6 11 11 7 12 3 9 1 6v14l-3 13-7 13-7 8-13 9-10 4-12 2h-7l-5-1 1 21 4 26 7 25 8 19 8 16 10 16 12 16 10 11 7 8 12 11 17 13 15 10 24 13 19 8 27 9 27 6 22 3 15 1h26l23-2 24-4 26-7 22-8 27-13 18-11 15-11 11-9 10-9 17-17 11-14 9-12 12-19 12-22 12-28 10-31 6-24 5-28 4-36 1-17v-50l-2-32-4-33-6-31-8-30-10-28-11-24-12-21-12-17-9-11-11-12-12-12-14-11-13-9-17-10-21-10-30-10-23-5-27-3-17-1v259l-8-6-8-7-17-10-19-7-15-3h-30l-18 4-16 6-14 8-10 8-7 5-1-158-5-32-6-25-6-17-7-14-8-10-6-4-17-4-5-5-1-2v-8l3-5 5-4 3-1z" fill="#fff"/>
<path transform="translate(359,400)" d="m0 0h27l18 4 16 7 11 7 13 11 10 12 8 14 6 14 4 20v20l-4 20-7 17-10 15-12 13-15 11-17 8-14 4-15 2h-11l-19-3-15-5-15-8-14-11-11-12-11-18-6-17-3-16v-20l4-20 7-16 7-12 12-14 12-10 16-9 14-5z" fill="#F0C82F"/>
<path transform="translate(508,509)" d="m0 0h22l16 2 19 5 21 9 15 9 12 9 10 9 8 7 12 13 13 17 7 10-1 3-14 6-20 6-21 3h-23l-21-3-21-6-18-8-15-8-17-12-15-13-5-6 5 2 18 8 8 2h10l-16-10-11-9-8-10 2-9 1-3 8-3 21-3 21-1-15-6-12-3-18-2 1-2z" fill="#F0C82F"/>
<path transform="translate(342,610)" d="m0 0 1 3-2 12v21l2 5 7-23 8-15h10l9 1 6 10 7 18 3 11v3h2v-32l-1-13 3 3 8 19 5 19 2 13v30l-4 22-8 24-8 16-10 18-13 18-8 10-4-2-8-9-10-15-8-16-6-16-5-21-2-20v-12l2-20 4-19 7-21 10-21z" fill="#F0C82F"/>
<path transform="translate(456,577)" d="m0 0 6 2 16 9 12 9 12 11 9 10 9 13 9 16 8 20 6 23 3 20 1 11v26l-10-1-19-5-21-9-16-10-13-10-17-17-12-16-11-19-10-25-6-23v-5l3 4 9 15 9 10 6 3-8-17-4-15v-8l10-6 6-4 19 9 18 12-4-8-8-10-6-7-7-6z" fill="#F0C82F"/>
<path transform="translate(564,395)" d="m0 0h24l24 3 28 7 20 7-6 12-12 16-12 13-12 10-15 10-16 8-15 6-19 5-21 3h-31l-15-2 1-3 19-4 10-4 5-4h-31l-7-2-5-17-1-4 13-13 18-13-9 1-15 5-12 6h-3l2-4 8-8 15-11 16-9 20-8 17-4z" fill="#F0C82F"/>
<path transform="translate(553,249)" d="m0 0h3l2 9 1 18-1 17-5 25-8 21-9 17-10 14-11 13-12 12-14 11-15 10-5 2 1-5 8-9 6-10 2-5v-4l-10 10-5 4h-2v-105l14-11 15-10 23-12 23-9z" fill="#F0C82F"/>
<path transform="translate(471,560)" d="m0 0" fill="#F0C82F"/>
</svg>
